<svg width="40.000000" height="40.000000" viewBox="0 0 40 40" fill="none" xmlns="http://www.w3.org/2000/svg" xmlns:xlink="http://www.w3.org/1999/xlink">
	<desc>
			Created with Pixso.
	</desc>
	<defs>
		<clipPath id="clip0_121">
			<rect id="icon" rx="-0.500000" width="39.000000" height="39.000000" transform="translate(0.500000 0.500000)" fill="white" fill-opacity="0"/>
		</clipPath>
	</defs>
	<rect id="icon" rx="-0.500000" width="39.000000" height="39.000000" transform="translate(0.500000 0.500000)" fill="#FFFFFF" fill-opacity="0"/>
	<g clip-path="url(#clip0_121)">
		<path id="Vector" d="M16.63 5L16.63 17.31C16.63 26.82 10.42 33.26 1.66 35L0 31.41C4.06 29.88 6.66 25.35 6.66 21.66L0 21.66L0 5L16.63 5ZM40 5L40 17.31C40 26.82 33.75 33.27 25 35L23.34 31.41C27.39 29.88 30 25.35 30 21.66L23.36 21.66L23.36 5L40 5Z" fill="#212529" fill-opacity="1.000000" fill-rule="nonzero"/>
	</g>
</svg>
